<svg width="125" height="125" viewBox="0 0 125 125" fill="none" xmlns="http://www.w3.org/2000/svg">
<g filter="url(#filter0_d_17_563)">
<path d="M62.5 4L66.4767 7.97124L71.0257 4.67099L74.3322 9.21543L79.3414 6.66742L81.8963 11.6732L87.2425 9.94014L88.9828 15.2839L94.5343 14.4086L95.4173 19.9588L101.037 19.9627L101.041 25.5827L106.591 26.4657L105.716 32.0172L111.06 33.7575L109.327 39.1037L114.333 41.6586L111.785 46.6678L116.329 49.9743L113.029 54.5233L117 58.5L113.029 62.4767L116.329 67.0257L111.785 70.3322L114.333 75.3414L109.327 77.8963L111.06 83.2425L105.716 84.9828L106.591 90.5343L101.041 91.4173L101.037 97.0373L95.4173 97.0412L94.5343 102.591L88.9828 101.716L87.2425 107.06L81.8963 105.327L79.3414 110.333L74.3322 107.785L71.0257 112.329L66.4767 109.029L62.5 113L58.5233 109.029L53.9743 112.329L50.6678 107.785L45.6586 110.333L43.1037 105.327L37.7575 107.06L36.0172 101.716L30.4657 102.591L29.5827 97.0412L23.9627 97.0373L23.9588 91.4173L18.4086 90.5343L19.2839 84.9828L13.9401 83.2425L15.6732 77.8963L10.6674 75.3414L13.2154 70.3322L8.67099 67.0257L11.9712 62.4767L8 58.5L11.9712 54.5233L8.67099 49.9743L13.2154 46.6678L10.6674 41.6586L15.6732 39.1037L13.9401 33.7575L19.2839 32.0172L18.4086 26.4657L23.9588 25.5827L23.9627 19.9627L29.5827 19.9588L30.4657 14.4086L36.0172 15.2839L37.7575 9.94014L43.1037 11.6732L45.6586 6.66742L50.6678 9.21543L53.9743 4.67099L58.5233 7.97124L62.5 4Z" fill="#DD2D2D"/>
<path d="M28.9674 50.5528C29.0683 50.322 29.0972 50.12 29.0972 49.8459C29.0972 48.937 29.0972 42.9645 29.0972 41.5939C29.0972 41.2044 29.0395 40.5552 28.9818 40.2811H30.3956C30.3523 40.6274 30.2946 41.1756 30.2946 41.5795C30.2946 42.95 30.2946 49.038 30.2946 49.7737C33.0645 49.0669 36.397 47.177 38.2003 44.8543L38.8495 45.8642C36.974 48.1868 34.0022 49.9613 30.3956 51.0144C30.2513 51.0577 30.0205 51.1298 29.7897 51.2597L28.9674 50.5528ZM51.4262 39.2857C51.7868 39.8051 52.3062 40.6851 52.5947 41.2621L51.8157 41.6084C51.5271 41.0313 51.0511 40.1657 50.6616 39.6175L51.4262 39.2857ZM52.9986 38.7086C53.3882 39.2424 53.9364 40.1369 54.2105 40.6706L53.4314 41.0169C53.1285 40.3965 52.6524 39.5742 52.2485 39.0405L52.9986 38.7086ZM45.973 41.0602C45.9008 40.6851 45.7998 40.3677 45.6989 40.0647L46.9972 39.8483C47.0117 40.1224 47.0838 40.5264 47.1271 40.8438C47.2281 41.493 48.815 49.3987 49.0169 50.3508C49.1179 50.7692 49.2333 51.2597 49.3632 51.6636L48.0504 51.9089C47.9782 51.4184 47.935 50.9856 47.834 50.5528C47.6753 49.6583 46.1316 41.8103 45.973 41.0602ZM41.9047 43.1376C42.2654 43.1231 42.6404 43.0943 43.1021 43.0366C44.4005 42.8923 49.392 42.0989 50.7625 41.8392C51.1809 41.7526 51.5416 41.6661 51.7868 41.5939L52.0321 42.8058C51.8157 42.8346 51.3685 42.8923 50.9934 42.95C49.493 43.1953 44.5736 43.9743 43.3185 44.1907C42.9145 44.2628 42.5827 44.335 42.1499 44.4215L41.9047 43.1376ZM41.8614 47.3068C42.1932 47.2924 42.7559 47.2347 43.1309 47.177C44.6601 46.975 50.0412 46.0806 51.758 45.7632C52.3206 45.6622 52.7245 45.5756 53.0419 45.4747L53.2727 46.6865C52.9698 46.7153 52.5081 46.8019 51.9744 46.8885C50.0556 47.1914 44.8621 48.0281 43.3906 48.3022C42.828 48.3888 42.4385 48.4754 42.1211 48.5619L41.8614 47.3068ZM66.037 44.1474C65.9937 44.2773 65.9504 44.4648 65.9504 44.5946C65.8206 45.6766 65.3012 49.139 65.1281 50.1488H63.9163C64.075 49.3698 64.6087 45.8353 64.652 44.912C63.7576 44.912 60.4684 44.912 60.0788 44.912C59.6605 44.912 59.271 44.9265 58.9103 44.9553V43.7435C59.2565 43.7868 59.7037 43.8156 60.0644 43.8156C60.6126 43.8156 63.6422 43.8156 64.4501 43.8156C64.6809 43.8156 65.0415 43.7868 65.157 43.7146L66.037 44.1474ZM57.5542 49.6872C57.9004 49.7305 58.3188 49.7593 58.7516 49.7593C59.5306 49.7593 65.8639 49.7593 66.6285 49.7593C66.9458 49.7593 67.4652 49.7305 67.7681 49.7016V50.8702C67.494 50.8557 66.9747 50.8557 66.6573 50.8557C65.8494 50.8557 59.4729 50.8557 58.7516 50.8557C58.3188 50.8557 57.987 50.8702 57.5542 50.8846V49.6872ZM73.5788 40.2667C73.9539 40.31 74.4011 40.3388 74.8628 40.3388C75.6418 40.3388 79.6956 40.3388 80.5468 40.3388C80.994 40.3388 81.4989 40.31 81.8452 40.2667V41.4641C81.5134 41.4352 81.0084 41.4208 80.5179 41.4208C79.7101 41.4208 75.6562 41.4208 74.8628 41.4208C74.43 41.4208 73.9683 41.4352 73.5788 41.4641V40.2667ZM82.9127 44.0609C82.8406 44.2051 82.7396 44.3782 82.7108 44.4937C82.3357 45.9075 81.6865 47.4078 80.6045 48.5908C79.1041 50.2498 77.2864 51.0866 75.4542 51.6059L74.5598 50.5816C76.5939 50.1633 78.3972 49.2255 79.6379 47.9272C80.5035 47.0183 81.0806 45.792 81.3402 44.7389C80.6334 44.7389 74.5598 44.7389 73.6942 44.7389C73.348 44.7389 72.7998 44.7533 72.2804 44.7966V43.5848C72.7998 43.6281 73.2903 43.6714 73.6942 43.6714C74.4011 43.6714 80.5468 43.6714 81.2825 43.6714C81.6144 43.6714 81.9317 43.6281 82.0904 43.5559L82.9127 44.0609ZM86.5306 44.7533C86.9778 44.7966 87.728 44.8399 88.5503 44.8399C89.6034 44.8399 95.3884 44.8399 96.456 44.8399C97.1773 44.8399 97.6822 44.7822 98.014 44.7533V46.1671C97.7111 46.1527 97.1052 46.1094 96.4704 46.1094C95.374 46.1094 89.6178 46.1094 88.5503 46.1094C87.7568 46.1094 86.9922 46.1383 86.5306 46.1671V44.7533ZM28.9748 74L28.9577 72.1447L33.3833 68.0765C34.5323 66.9786 35.1536 66.2978 35.1536 65.319C35.1536 64.2212 34.328 63.5403 33.1961 63.5488C32.0386 63.5403 31.2812 64.2722 31.2897 65.4552H28.8556C28.8471 63.0467 30.6344 61.5062 33.2301 61.5062C35.8685 61.5062 37.6217 63.0126 37.6217 65.1488C37.6217 66.5531 36.9408 67.7021 34.4046 70L32.5323 71.8212V71.8893H37.7919V74H28.9748ZM42.7714 72.7404L41.3076 77.5915H39.5033L40.3544 72.7404H42.7714ZM45.2147 71.8212V69.7957L50.4233 61.6764H53.6404V69.7617H55.2063V71.8212H53.6404V74H51.2063V71.8212H45.2147ZM47.802 69.7617H51.2403V64.485H51.1212L47.802 69.6595V69.7617ZM61.905 74.1702C59.088 74.1702 57.0709 72.6893 57.0709 70.6808C57.0709 69.1319 58.2624 67.8723 59.7944 67.634V67.5489C58.4582 67.2935 57.539 66.1786 57.5475 64.8254C57.539 62.9105 59.3858 61.5062 61.905 61.5062C64.4242 61.5062 66.271 62.9105 66.2795 64.8254C66.271 66.1786 65.3263 67.2935 64.0327 67.5489V67.634C65.5306 67.8723 66.7391 69.1319 66.7391 70.6808C66.7391 72.6893 64.7136 74.1702 61.905 74.1702ZM59.7433 70.4255C59.7348 71.4808 60.6029 72.2213 61.905 72.2127C63.2072 72.2213 64.0753 71.4808 64.0667 70.4255C64.0753 69.3616 63.1561 68.5787 61.905 68.5701C60.6539 68.5787 59.7348 69.3531 59.7433 70.4255ZM60.0497 65.0807C60.0412 66.068 60.8156 66.7574 61.905 66.7659C62.9859 66.7574 63.7689 66.068 63.7774 65.0807C63.7689 64.119 63.0029 63.4467 61.905 63.4467C60.7986 63.4467 60.0412 64.119 60.0497 65.0807ZM73.6761 74.1702C70.5867 74.1702 68.7229 71.8723 68.7229 67.8382C68.7229 63.8126 70.6037 61.5062 73.6761 61.5062C76.7485 61.5062 78.6294 63.8126 78.6294 67.8382C78.6294 71.8893 76.757 74.1702 73.6761 74.1702ZM71.3442 67.8382C71.3271 70.6808 72.2463 72.0596 73.6761 72.0596C75.1059 72.0596 76.0166 70.6808 76.0081 67.8382C76.0166 65.0212 75.0974 63.6084 73.6761 63.5999C72.2548 63.6084 71.3442 65.0212 71.3442 67.8382ZM81.2071 60.3H94.8896V62.3742H83.3161V75.5687H81.2071V60.3ZM93.8787 60.3H96.0051V73.1111C96.0051 74.244 95.7611 74.8366 95.0291 75.1852C94.3144 75.5164 93.2686 75.5687 91.6999 75.5687C91.6128 74.9761 91.2468 74.0174 90.9504 73.4771C91.9614 73.5294 93.0943 73.512 93.4429 73.512C93.7741 73.512 93.8787 73.4074 93.8787 73.0936V60.3ZM82.3575 66.784H94.9071V68.8581H82.3575V66.784ZM87.4296 61.433H89.5212V67.8123H87.4296V61.433Z" fill="white"/>
</g>
<defs>
<filter id="filter0_d_17_563" x="0" y="0" width="125" height="125" filterUnits="userSpaceOnUse" color-interpolation-filters="sRGB">
<feFlood flood-opacity="0" result="BackgroundImageFix"/>
<feColorMatrix in="SourceAlpha" type="matrix" values="0 0 0 0 0 0 0 0 0 0 0 0 0 0 0 0 0 0 127 0" result="hardAlpha"/>
<feOffset dy="4"/>
<feGaussianBlur stdDeviation="4"/>
<feComposite in2="hardAlpha" operator="out"/>
<feColorMatrix type="matrix" values="0 0 0 0 0.616667 0 0 0 0 0.0282639 0 0 0 0 0.0282639 0 0 0 0.25 0"/>
<feBlend mode="normal" in2="BackgroundImageFix" result="effect1_dropShadow_17_563"/>
<feBlend mode="normal" in="SourceGraphic" in2="effect1_dropShadow_17_563" result="shape"/>
</filter>
</defs>
</svg>
