<svg width="109" height="109" viewBox="0 0 109 109" fill="none" xmlns="http://www.w3.org/2000/svg">
<path id="Star 1" d="M54.5 0L58.4767 3.97124L63.0257 0.670986L66.3322 5.21543L71.3414 2.66742L73.8963 7.67316L79.2425 5.94014L80.9828 11.2839L86.5343 10.4086L87.4173 15.9588L93.0373 15.9627L93.0412 21.5827L98.5914 22.4657L97.7161 28.0172L103.06 29.7575L101.327 35.1037L106.333 37.6586L103.785 42.6678L108.329 45.9743L105.029 50.5233L109 54.5L105.029 58.4767L108.329 63.0257L103.785 66.3322L106.333 71.3414L101.327 73.8963L103.06 79.2425L97.7161 80.9828L98.5914 86.5343L93.0412 87.4173L93.0373 93.0373L87.4173 93.0412L86.5343 98.5914L80.9828 97.7161L79.2425 103.06L73.8963 101.327L71.3414 106.333L66.3322 103.785L63.0257 108.329L58.4767 105.029L54.5 109L50.5233 105.029L45.9743 108.329L42.6678 103.785L37.6586 106.333L35.1037 101.327L29.7575 103.06L28.0172 97.7161L22.4657 98.5914L21.5827 93.0412L15.9627 93.0373L15.9588 87.4173L10.4086 86.5343L11.2839 80.9828L5.94014 79.2425L7.67316 73.8963L2.66742 71.3414L5.21543 66.3322L0.670986 63.0257L3.97124 58.4767L0 54.5L3.97124 50.5233L0.670986 45.9743L5.21543 42.6678L2.66742 37.6586L7.67316 35.1037L5.94014 29.7575L11.2839 28.0172L10.4086 22.4657L15.9588 21.5827L15.9627 15.9627L21.5827 15.9588L22.4657 10.4086L28.0172 11.2839L29.7575 5.94014L35.1037 7.67316L37.6586 2.66742L42.6678 5.21543L45.9743 0.670986L50.5233 3.97124L54.5 0Z" fill="#DD2D2D"/>
</svg>
