<svg width="31" height="25" viewBox="0 0 31 25" fill="none" xmlns="http://www.w3.org/2000/svg">
<path d="M26.9298 5.97481C26.9481 6.23521 26.9481 6.49561 26.9481 6.75841C26.9481 14.766 20.7565 24.0012 9.43487 24.0012V23.9964C6.09044 24.0012 2.81547 23.058 0 21.2796C0.486309 21.3372 0.975055 21.366 1.46502 21.3672C4.23661 21.3696 6.92898 20.454 9.10945 18.768C6.47558 18.7188 4.16592 17.028 3.35906 14.5596C4.28171 14.7348 5.23239 14.6988 6.13797 14.4552C3.26643 13.884 1.20054 11.4 1.20054 8.51521V8.43841C2.05615 8.90761 3.01414 9.16801 3.99407 9.19681C1.28951 7.41721 0.455838 3.87481 2.08905 1.10521C5.2141 4.89121 9.82489 7.19281 14.7745 7.43641C14.2785 5.33161 14.9561 3.12601 16.5552 1.64641C19.0343 -0.64799 22.9333 -0.53039 25.2637 1.90921C26.6422 1.64161 27.9633 1.14361 29.1724 0.43801C28.7129 1.84081 27.7513 3.03241 26.4666 3.78961C27.6867 3.64801 28.8787 3.32641 30.0012 2.83561C29.1749 4.05241 28.1352 5.11441 26.931 5.97241L26.9298 5.97481Z" fill="currentColor"/>
</svg>
